<svg xmlns="http://www.w3.org/2000/svg" width="16" height="13" viewBox="0 0 16 13"><g><g><path fill="#55acee" d="M15.997 1.538a6.51 6.51 0 0 1-1.885.517A3.293 3.293 0 0 0 15.555.24a6.58 6.58 0 0 1-2.084.796 3.281 3.281 0 0 0-5.593 2.993A9.319 9.319 0 0 1 1.114.6a3.282 3.282 0 0 0 1.015 4.382 3.27 3.27 0 0 1-1.486-.41v.04a3.284 3.284 0 0 0 2.632 3.22 3.308 3.308 0 0 1-1.481.056 3.286 3.286 0 0 0 3.065 2.279A6.584 6.584 0 0 1 0 11.526 9.294 9.294 0 0 0 5.03 13c6.036 0 9.338-5 9.338-9.338 0-.142-.004-.284-.01-.425a6.658 6.658 0 0 0 1.638-1.699z"/></g></g></svg>