<svg xmlns="http://www.w3.org/2000/svg" width="17" height="12" viewBox="0 0 17 12"><g><g><g><g><path d="M.008.134h16.943V12H.008z"/></g><g><g><path fill="#d9252a" d="M16.597 1.987a2.123 2.123 0 0 0-1.499-1.5C13.777.135 8.476.135 8.476.135s-5.301 0-6.623.354c-.73.195-1.304.77-1.499 1.499C0 3.308 0 6.067 0 6.067s0 2.758.354 4.08c.195.729.77 1.304 1.499 1.498C3.175 12 8.476 12 8.476 12s5.3 0 6.622-.355a2.123 2.123 0 0 0 1.499-1.498c.354-1.322.354-4.08.354-4.08s0-2.759-.354-4.08"/></g></g></g><g><path fill="#fffffe" d="M6.78 8.61l4.404-2.544-4.403-2.542V8.61"/></g></g></g></svg>